<svg xmlns="http://www.w3.org/2000/svg" xmlns:xlink="http://www.w3.org/1999/xlink" width="200" zoomAndPan="magnify" viewBox="0 0 150 112.499997" height="150" preserveAspectRatio="xMidYMid meet" version="1.0"><defs><clipPath id="id1"><path d="M 4 66 L 147.480469 66 L 147.480469 112.003906 L 4 112.003906 Z M 4 66 " clip-rule="nonzero"/></clipPath><clipPath id="id2"><path d="M 2.625 0 L 136 0 L 136 35 L 2.625 35 Z M 2.625 0 " clip-rule="nonzero"/></clipPath></defs><g clip-path="url(#id1)"><path fill="rgb(44.709778%, 29.019165%, 23.529053%)" d="M 146.683594 105.964844 L 135.96875 104.074219 L 128.644531 98.40625 L 126.824219 80.453125 L 131.816406 74.214844 L 142.695312 72.074219 L 142.035156 66.46875 L 24.378906 67.585938 C 13.839844 67.683594 5.085938 77.347656 4.78125 89.421875 C 4.464844 101.78125 13.078125 112.019531 24.074219 112.019531 L 147.394531 112.019531 L 146.683594 105.964844 " fill-opacity="1" fill-rule="nonzero"/></g><path fill="rgb(96.078491%, 96.078491%, 96.078491%)" d="M 142.066406 105.601562 L 27.898438 105.777344 C 23.769531 105.78125 20.078125 103.757812 17.554688 100.535156 C 15.25 97.640625 13.890625 93.789062 13.972656 89.582031 C 14.164062 80.851562 20.503906 73.8125 28.125 73.753906 L 138.34375 72.808594 C 138.097656 73.074219 136.441406 74.988281 135.074219 78.121094 C 134.667969 79.011719 134.296875 79.988281 134.015625 81.070312 C 133.382812 83.292969 133 85.882812 133.246094 88.78125 C 133.308594 89.6875 133.453125 90.59375 133.636719 91.546875 C 133.71875 91.925781 133.800781 92.296875 133.902344 92.699219 C 134.578125 95.238281 135.605469 97.425781 136.730469 99.261719 C 137.507812 100.585938 138.363281 101.710938 139.160156 102.640625 C 140.371094 104.097656 141.472656 105.09375 142.066406 105.601562 " fill-opacity="1" fill-rule="nonzero"/><path fill="rgb(89.7995%, 89.7995%, 89.7995%)" d="M 17.554688 100.535156 C 15.316406 97.726562 13.96875 94.011719 13.96875 89.949219 C 13.96875 89.828125 13.972656 89.703125 13.972656 89.582031 C 14.164062 80.851562 20.503906 73.8125 28.125 73.753906 L 138.34375 72.808594 L 17.554688 100.535156 " fill-opacity="1" fill-rule="nonzero"/><path fill="rgb(80.778503%, 85.099792%, 86.669922%)" d="M 86.382812 91.140625 L 133.582031 88.605469 C 133.660156 89.492188 133.785156 90.414062 133.980469 91.359375 L 86.382812 91.140625 " fill-opacity="1" fill-rule="nonzero"/><path fill="rgb(80.778503%, 85.099792%, 86.669922%)" d="M 134.351562 80.878906 L 46.953125 81.007812 L 135.410156 77.945312 C 135.015625 78.828125 134.652344 79.804688 134.351562 80.878906 " fill-opacity="1" fill-rule="nonzero"/><path fill="rgb(80.778503%, 85.099792%, 86.669922%)" d="M 139.496094 102.46875 L 53.199219 100.753906 L 137.058594 99.085938 C 137.847656 100.402344 138.695312 101.535156 139.496094 102.46875 " fill-opacity="1" fill-rule="nonzero"/><path fill="rgb(100%, 65.489197%, 14.898682%)" d="M 54.332031 81.707031 L 68.433594 81.707031 L 68.117188 102.46875 L 61.390625 95.710938 L 54.257812 104.863281 L 54.332031 81.707031 " fill-opacity="1" fill-rule="nonzero"/><path fill="rgb(86.268616%, 12.159729%, 25.099182%)" d="M 142.078125 64.460938 L 132.136719 63.03125 L 125.339844 58.753906 L 123.652344 45.175781 L 128.28125 40.464844 L 138.375 38.847656 L 137.761719 34.605469 L 28.605469 35.457031 C 18.828125 35.53125 10.707031 42.832031 10.421875 51.957031 C 10.128906 61.300781 18.121094 69.039062 28.324219 69.039062 L 142.738281 69.039062 L 142.078125 64.460938 " fill-opacity="1" fill-rule="nonzero"/><path fill="rgb(96.078491%, 96.078491%, 96.078491%)" d="M 137.792969 64.1875 L 31.875 64.324219 C 28.039062 64.324219 24.613281 62.796875 22.273438 60.363281 C 20.136719 58.171875 18.875 55.261719 18.953125 52.078125 C 19.125 45.480469 25.007812 40.160156 32.082031 40.113281 L 134.339844 39.402344 C 134.113281 39.601562 132.574219 41.050781 131.308594 43.417969 C 130.929688 44.089844 130.589844 44.828125 130.324219 45.648438 C 129.738281 47.328125 129.378906 49.285156 129.609375 51.476562 C 129.667969 52.164062 129.800781 52.847656 129.972656 53.566406 C 130.050781 53.847656 130.128906 54.132812 130.222656 54.433594 C 130.847656 56.359375 131.800781 58.007812 132.84375 59.394531 C 133.5625 60.398438 134.359375 61.25 135.101562 61.953125 C 136.21875 63.050781 137.246094 63.804688 137.792969 64.1875 " fill-opacity="1" fill-rule="nonzero"/><path fill="rgb(89.7995%, 89.7995%, 89.7995%)" d="M 22.273438 60.363281 C 20.199219 58.234375 18.949219 55.429688 18.949219 52.355469 C 18.949219 52.265625 18.949219 52.171875 18.953125 52.078125 C 19.125 45.480469 25.007812 40.160156 32.082031 40.113281 L 134.339844 39.402344 L 22.273438 60.363281 " fill-opacity="1" fill-rule="nonzero"/><path fill="rgb(80.778503%, 85.099792%, 86.669922%)" d="M 86.128906 53.261719 L 129.921875 51.34375 C 129.988281 52.011719 130.109375 52.707031 130.292969 53.425781 L 86.128906 53.261719 " fill-opacity="1" fill-rule="nonzero"/><path fill="rgb(80.778503%, 85.099792%, 86.669922%)" d="M 130.632812 45.503906 L 49.550781 45.597656 L 131.613281 43.285156 C 131.25 43.953125 130.914062 44.691406 130.632812 45.503906 " fill-opacity="1" fill-rule="nonzero"/><path fill="rgb(80.778503%, 85.099792%, 86.669922%)" d="M 135.410156 61.816406 L 55.34375 60.523438 L 133.148438 59.261719 C 133.878906 60.257812 134.667969 61.117188 135.410156 61.816406 " fill-opacity="1" fill-rule="nonzero"/><g clip-path="url(#id2)"><path fill="rgb(36.468506%, 76.858521%, 38.42926%)" d="M 134.65625 29.867188 L 124.71875 28.4375 L 117.921875 24.160156 L 116.234375 10.582031 L 120.863281 5.867188 L 130.957031 4.25 L 130.34375 0.0117188 L 21.1875 0.859375 C 11.410156 0.933594 3.289062 8.238281 3.003906 17.363281 C 2.710938 26.707031 10.703125 34.445312 20.902344 34.445312 L 135.320312 34.445312 L 134.65625 29.867188 " fill-opacity="1" fill-rule="nonzero"/></g><path fill="rgb(96.078491%, 96.078491%, 96.078491%)" d="M 130.375 29.589844 L 24.457031 29.722656 C 20.617188 29.726562 17.195312 28.199219 14.855469 25.761719 C 12.71875 23.578125 11.457031 20.664062 11.535156 17.484375 C 11.707031 10.886719 17.589844 5.5625 24.660156 5.519531 L 126.921875 4.804688 C 126.695312 5.007812 125.15625 6.457031 123.886719 8.824219 C 123.511719 9.496094 123.167969 10.234375 122.902344 11.054688 C 122.316406 12.726562 121.960938 14.6875 122.191406 16.882812 C 122.25 17.566406 122.382812 18.253906 122.554688 18.972656 C 122.628906 19.253906 122.707031 19.539062 122.800781 19.839844 C 123.429688 21.761719 124.378906 23.414062 125.425781 24.800781 C 126.140625 25.804688 126.941406 26.652344 127.679688 27.355469 C 128.800781 28.457031 129.824219 29.207031 130.375 29.589844 " fill-opacity="1" fill-rule="nonzero"/><path fill="rgb(89.7995%, 89.7995%, 89.7995%)" d="M 14.855469 25.761719 C 12.78125 23.640625 11.53125 20.835938 11.53125 17.761719 C 11.53125 17.671875 11.53125 17.578125 11.535156 17.484375 C 11.707031 10.886719 17.589844 5.5625 24.660156 5.519531 L 126.921875 4.804688 L 14.855469 25.761719 " fill-opacity="1" fill-rule="nonzero"/><path fill="rgb(80.778503%, 85.099792%, 86.669922%)" d="M 78.710938 18.667969 L 122.503906 16.746094 C 122.570312 17.417969 122.691406 18.113281 122.875 18.828125 L 78.710938 18.667969 " fill-opacity="1" fill-rule="nonzero"/><path fill="rgb(80.778503%, 85.099792%, 86.669922%)" d="M 123.214844 10.910156 L 42.132812 11.003906 L 124.199219 8.691406 C 123.835938 9.355469 123.496094 10.097656 123.214844 10.910156 " fill-opacity="1" fill-rule="nonzero"/><path fill="rgb(80.778503%, 85.099792%, 86.669922%)" d="M 127.988281 27.222656 L 47.921875 25.929688 L 125.730469 24.667969 C 126.460938 25.664062 127.25 26.519531 127.988281 27.222656 " fill-opacity="1" fill-rule="nonzero"/><path fill="rgb(14.118958%, 89.7995%, 80.778503%)" d="M 105.859375 46.703125 L 121.601562 46.703125 L 121.246094 60.816406 L 113.738281 56.222656 L 105.773438 62.441406 L 105.859375 46.703125 " fill-opacity="1" fill-rule="nonzero"/><path fill="rgb(96.078491%, 14.118958%, 28.239441%)" d="M 36.183594 9.632812 L 47.832031 9.632812 L 47.5625 23.746094 L 42.011719 19.152344 L 36.121094 25.378906 L 36.183594 9.632812 " fill-opacity="1" fill-rule="nonzero"/></svg>